# xmcd
#
# Track frame offsets:
#	150
#	15209
#	32910
#	41117
#	53522
#	70065
#	82439
#	97133
#	118190
#	146648
#
# Disc length: 2229 seconds
# Revision: 0
# Processed by: cddbd v1.5.2PL0 Copyright (c) Steve Scherf et al.
# Submitted via: dBpowerAMP V12.0
#
DISCID=8b08b30a
DTITLE=Breakout - Żagiel Ziemi
DYEAR=1979
DGENRE=Blues
TTITLE0=Jestem zwyczajnym mięśniem
TTITLE1=Dlaczego walcze
TTITLE2=Ile Olimpiad
TTITLE3=Rekord jest próbą
TTITLE4=Żagiel Ziemi
TTITLE5=To nas łączy
TTITLE6=W tłumie stadionu
TTITLE7=Historia dysku
TTITLE8=Maraton
TTITLE9=Nad stadionem w Olimpii
EXTD=
EXTT0=
EXTT1=
EXTT2=
EXTT3=
EXTT4=
EXTT5=
EXTT6=
EXTT7=
EXTT8=
EXTT9=
PLAYORDER=
